<svg width="2221" height="2221" viewBox="0 0 2221 2221" fill="none" xmlns="http://www.w3.org/2000/svg">
<rect width="2221" height="2221" fill="white"/>
<path d="M947.362 116C1023.66 115.99 1087.1 127.495 1147.87 151.896C1167.02 159.589 1185.87 168.911 1203.28 179.974C1285.16 232.021 1316.41 309.813 1290.59 403.266C1280.71 439.042 1265.97 473.839 1250.07 507.49C1230.58 548.75 1207.62 588.375 1186.03 628.635C1156.19 684.313 1126.85 740.276 1107.72 800.755C1100.73 822.844 1094.38 845.542 1091.59 868.427C1089.22 887.844 1091.5 908.031 1093.46 927.703C1094.63 939.422 1099.95 950.833 1112.7 954.505C1126.65 958.521 1136.9 950.25 1145.05 940.5C1153.53 930.359 1162.06 919.766 1167.92 908.047C1179.42 885.078 1190.28 861.625 1199.29 837.583C1223.17 773.818 1244.9 709.24 1269.4 645.719C1293.69 582.745 1323.49 522.224 1365.83 469.193C1384.9 445.297 1405.93 422.286 1429.15 402.505C1504.27 338.521 1590.83 319.802 1685.49 346.99C1782.35 374.807 1856.81 433.479 1907.68 520.536C1941.57 578.531 1953.08 641.599 1940.79 707.995C1927.38 780.458 1886.52 833.495 1822.82 869.359C1774.11 896.786 1720.56 907.797 1665.86 914.297C1607.35 921.245 1548.4 925.474 1490.34 935.089C1456.35 940.719 1423.06 952.792 1390.7 965.214C1362.56 976.021 1339.19 995.344 1319.99 1019.01C1304.96 1037.52 1295.18 1058.42 1293.76 1082.46C1291.67 1117.94 1312.46 1142.72 1347.76 1143.36C1367.35 1143.72 1387.77 1140.89 1406.51 1135.17C1449.34 1122.13 1491.53 1106.92 1533.66 1091.69C1597.75 1068.51 1662.18 1046.68 1729.94 1036.89C1779.55 1029.72 1829.15 1028.45 1878.58 1039.1C1988.6 1062.82 2047.99 1145.94 2034.99 1258.26C2018.22 1403.28 1898.09 1542.02 1757.23 1579.01C1676.61 1600.19 1600.9 1586.81 1529.22 1546.18C1489.91 1523.9 1454.99 1495.71 1423.45 1463.58C1394.95 1434.54 1368.02 1403.94 1339.9 1374.52C1315.24 1348.7 1290.47 1322.95 1264.67 1298.29C1238.63 1273.38 1207.52 1265.85 1172.5 1276.15C1162.96 1278.95 1153.09 1280.66 1143.58 1283.56C1088.32 1300.48 1057.54 1358.84 1077.94 1413.46C1087.11 1437.99 1101.84 1460.82 1116.39 1482.85C1135.15 1511.24 1156.92 1537.63 1176.19 1565.7C1195.61 1593.99 1209.73 1624.71 1214.86 1659.3C1219.13 1688.09 1215.55 1715.64 1205.34 1742.49C1171.65 1831.1 1066.52 1897.95 972.17 1890.98C892.117 1885.07 839.492 1829.72 835.383 1747C833.373 1706.6 841.201 1667.55 852.716 1629.2C863.701 1592.62 875.914 1556.41 887.117 1519.89C895.425 1492.81 902.784 1465.3 899.966 1436.67C898.685 1423.72 895.899 1410.11 890.216 1398.57C878.862 1375.52 853.977 1368.54 833.711 1384.28C819.8 1395.08 808.008 1410.21 799.216 1425.66C783.393 1453.45 777.373 1485 775.013 1516.54C770.612 1575.35 767.586 1634.29 764.826 1693.2C761.633 1761.34 758.56 1829.49 740.128 1895.64C733.909 1917.94 726.289 1940.14 716.638 1961.16C663.831 2076.07 556.909 2115.65 453.722 2104.34C315.393 2089.2 201.018 1977.43 192.675 1819.1C184.612 1666.07 248.93 1547.24 374.149 1460.86C418.112 1430.53 466.935 1409.28 516.065 1388.85C552.081 1373.88 588.393 1359.53 623.8 1343.2C667.852 1322.88 707.81 1296.09 741.472 1260.68C767.018 1233.81 787.097 1203.63 796.373 1167.18C797.998 1160.77 799.534 1154.21 799.966 1147.64C801.623 1122.23 791.044 1106.77 765.873 1104.59C742.966 1102.61 718.977 1102.31 696.638 1106.94C652.018 1116.2 608.19 1129.29 564.06 1140.89C514.185 1154 464.081 1165.37 412.003 1164.5C318.649 1162.95 248.419 1121.99 208.43 1037.46C167.722 951.417 175.607 867.115 234.112 790.932C308.758 693.724 441.966 668.755 547.169 732.979C580.154 753.115 609.539 779.74 638.482 805.729C664.383 828.99 686.237 856.76 712.044 880.151C737.774 903.474 764.446 926.661 793.831 944.839C847.951 978.318 883.909 963.646 905.378 903.714C918.503 867.057 917.3 830.125 906.841 793.396C895.581 753.833 877.414 718.255 848.461 687.828C811.258 648.74 774.602 608.906 740.602 567.052C698.321 514.99 666.399 456.958 653.305 389.969C633.248 287.406 677.331 198.286 771.591 153.193C830.508 124.995 893.628 116.656 947.362 116Z" fill="#1E5437"/>
</svg>
