<svg xmlns="http://www.w3.org/2000/svg" xmlns:xlink="http://www.w3.org/1999/xlink" width="2000" zoomAndPan="magnify" viewBox="0 0 1500 1499.999933" height="2000" preserveAspectRatio="xMidYMid meet" version="1.0"><path fill="#1e5437" d="M 629.5625 0.230469 C 686.789062 0.222656 734.363281 8.851562 779.941406 27.152344 C 794.308594 32.921875 808.445312 39.914062 821.5 48.210938 C 882.914062 87.246094 906.347656 145.589844 886.984375 215.679688 C 879.574219 242.511719 868.519531 268.609375 856.59375 293.847656 C 841.976562 324.792969 824.753906 354.511719 808.566406 384.707031 C 786.179688 426.464844 764.179688 468.4375 749.828125 513.796875 C 744.585938 530.363281 739.824219 547.386719 737.734375 564.550781 C 735.957031 579.113281 737.667969 594.253906 739.136719 609.007812 C 740.011719 617.796875 744.003906 626.355469 753.566406 629.109375 C 764.027344 632.121094 771.71875 625.917969 777.832031 618.605469 C 784.191406 611 790.585938 603.054688 794.984375 594.265625 C 803.609375 577.039062 811.753906 559.449219 818.511719 541.417969 C 836.417969 493.59375 852.714844 445.160156 871.089844 397.519531 C 889.304688 350.289062 911.660156 304.898438 943.414062 265.125 C 957.71875 247.203125 973.488281 229.945312 990.902344 215.109375 C 1047.242188 167.121094 1112.160156 153.082031 1183.160156 173.472656 C 1255.800781 194.335938 1311.648438 238.339844 1349.800781 303.632812 C 1375.214844 347.128906 1383.851562 394.429688 1374.636719 444.226562 C 1364.574219 498.574219 1333.933594 538.351562 1286.15625 565.25 C 1249.621094 585.820312 1209.460938 594.078125 1168.4375 598.953125 C 1124.550781 604.164062 1080.339844 607.335938 1036.792969 614.546875 C 1011.304688 618.769531 986.335938 627.824219 962.066406 637.140625 C 940.960938 645.246094 923.429688 659.738281 909.03125 677.484375 C 897.761719 691.371094 890.425781 707.046875 889.363281 725.078125 C 887.792969 751.683594 903.386719 770.273438 929.863281 770.753906 C 944.550781 771.019531 959.871094 768.894531 973.925781 764.609375 C 1006.046875 754.824219 1037.691406 743.421875 1069.285156 731.996094 C 1117.351562 714.613281 1165.675781 698.238281 1216.492188 690.894531 C 1253.707031 685.519531 1290.90625 684.566406 1327.976562 692.554688 C 1410.492188 710.34375 1455.03125 772.683594 1445.285156 856.925781 C 1432.703125 965.691406 1342.605469 1069.742188 1236.960938 1097.488281 C 1176.496094 1113.371094 1119.71875 1103.335938 1065.953125 1072.863281 C 1036.472656 1056.152344 1010.28125 1035.011719 986.628906 1010.917969 C 965.25 989.132812 945.058594 966.1875 923.964844 944.117188 C 905.472656 924.757812 886.890625 905.445312 867.546875 886.949219 C 848.011719 868.265625 824.683594 862.617188 798.417969 870.339844 C 791.261719 872.441406 783.855469 873.722656 776.726562 875.902344 C 735.277344 888.589844 712.195312 932.363281 727.496094 973.324219 C 734.371094 991.722656 745.417969 1008.84375 756.335938 1025.371094 C 770.402344 1046.664062 786.730469 1066.449219 801.179688 1087.503906 C 815.746094 1108.726562 826.339844 1131.765625 830.1875 1157.707031 C 833.386719 1179.300781 830.703125 1199.960938 823.046875 1220.101562 C 797.78125 1286.554688 718.929688 1336.695312 648.167969 1331.46875 C 588.128906 1327.03125 548.660156 1285.519531 545.578125 1223.480469 C 544.070312 1193.183594 549.941406 1163.890625 558.578125 1135.132812 C 566.816406 1107.695312 575.976562 1080.535156 584.378906 1053.148438 C 590.609375 1032.839844 596.128906 1012.203125 594.015625 990.734375 C 593.054688 981.023438 590.964844 970.8125 586.703125 962.15625 C 578.1875 944.867188 559.523438 939.636719 544.324219 951.4375 C 533.890625 959.539062 525.046875 970.890625 518.453125 982.476562 C 506.585938 1003.316406 502.070312 1026.980469 500.300781 1050.636719 C 497 1094.746094 494.730469 1138.945312 492.660156 1183.132812 C 490.265625 1234.234375 487.960938 1285.347656 474.136719 1334.957031 C 469.472656 1351.6875 463.757812 1368.332031 456.519531 1384.097656 C 416.914062 1470.28125 336.722656 1499.964844 259.332031 1491.488281 C 155.585938 1480.128906 69.804688 1396.300781 63.546875 1277.554688 C 57.5 1162.785156 105.738281 1073.664062 199.652344 1008.875 C 232.625 986.128906 269.242188 970.191406 306.089844 954.871094 C 333.101562 943.640625 360.335938 932.875 386.890625 920.628906 C 419.929688 905.390625 449.898438 885.300781 475.144531 858.742188 C 494.304688 838.589844 509.363281 815.949219 516.320312 788.613281 C 517.539062 783.808594 518.691406 778.886719 519.015625 773.960938 C 520.257812 754.90625 512.324219 743.308594 493.445312 741.675781 C 476.265625 740.191406 458.273438 739.960938 441.519531 743.4375 C 408.054688 750.378906 375.183594 760.195312 342.085938 768.898438 C 304.679688 778.730469 267.101562 787.257812 228.042969 786.605469 C 158.027344 785.441406 105.355469 754.726562 75.363281 691.324219 C 44.832031 626.792969 50.746094 563.566406 94.625 506.429688 C 150.609375 433.523438 250.515625 414.796875 329.417969 462.964844 C 354.15625 478.066406 376.195312 498.035156 397.902344 517.527344 C 417.328125 534.972656 433.71875 555.800781 453.074219 573.34375 C 472.371094 590.835938 492.375 608.226562 514.414062 621.859375 C 555.003906 646.96875 581.972656 635.964844 598.074219 591.015625 C 607.917969 563.523438 607.015625 535.824219 599.171875 508.277344 C 590.726562 478.605469 577.101562 451.921875 555.386719 429.101562 C 527.484375 399.785156 499.992188 369.910156 474.492188 338.519531 C 442.78125 299.472656 418.839844 255.949219 409.019531 205.707031 C 393.976562 128.785156 427.039062 61.945312 497.734375 28.125 C 541.921875 6.976562 589.261719 0.722656 629.5625 0.230469 Z M 629.5625 0.230469 " fill-opacity="1" fill-rule="nonzero"/></svg>